<svg width="130" height="102" viewBox="0 0 130 102" fill="none" xmlns="http://www.w3.org/2000/svg">
<rect width="130" height="102" fill="#1E1E1E"/>
<g id="Landing">
<g id="1. Hero Section" clip-path="url(#clip0_0_1)">
<rect width="1440" height="783" transform="translate(-748 -407)" fill="white"/>
<g id="Arrow">
<g id="Arrow 2">
<g id="Group 39866">
<path id="Vector 210" d="M11.9546 69.749C20.5173 56.736 33.3049 43.9805 49.5222 41.9786C59.886 40.6992 71.534 46.6889 75.9644 56.1795C80.1486 65.1426 80.6154 75.9751 72.7335 82.8938C68.6252 86.5001 63.4561 87.8438 58.8247 84.2853C51.749 78.8487 52.0344 66.2135 54.5718 58.6751C62.4903 35.1492 85.5839 14.775 110.22 10.9153" stroke="url(#paint0_linear_0_1)" stroke-width="3.3631" stroke-linecap="round"/>
<path id="Vector 219" d="M92.4922 5.16357C96.7586 6.05137 106.433 8.37878 111.001 10.5861" stroke="url(#paint1_linear_0_1)" stroke-width="3.3631" stroke-linecap="round"/>
<path id="Vector 220" d="M111.008 10.5862C108.217 13.9329 102.083 21.7682 99.8755 26.336" stroke="url(#paint2_linear_0_1)" stroke-width="3.3631" stroke-linecap="round"/>
</g>
</g>
</g>
<g id="Hero Left">
<g id="Hero TExt">
</g>
<g id="Features" filter="url(#filter0_d_0_1)">
<rect x="-638" y="50" width="711" height="77" rx="8" fill="white" shape-rendering="crispEdges"/>
<g id="Frame 1001">
<g id="Frame 997">
<path id="8.3 LPA" d="M-27.2129 78.32C-27.8529 77.92 -28.3329 77.4933 -28.6529 77.04C-28.9596 76.5733 -29.1129 76.02 -29.1129 75.38C-29.1129 74.6867 -28.9129 74.0667 -28.5129 73.52C-28.1129 72.9733 -27.5862 72.5467 -26.9329 72.24C-26.2662 71.92 -25.5329 71.76 -24.7329 71.76C-23.9196 71.76 -23.2129 71.9133 -22.6129 72.22C-22.0129 72.5267 -21.5529 72.9333 -21.2329 73.44C-20.8996 73.9333 -20.7329 74.46 -20.7329 75.02C-20.7329 75.9 -20.9996 76.6133 -21.5329 77.16C-22.0529 77.6933 -22.8196 78.1467 -23.8329 78.52C-22.9262 78.9467 -22.2596 79.4333 -21.8329 79.98C-21.3929 80.5267 -21.1729 81.1933 -21.1729 81.98C-21.1729 82.8467 -21.4129 83.6 -21.8929 84.24C-22.3596 84.88 -22.9929 85.3733 -23.7929 85.72C-24.5929 86.0667 -25.4929 86.24 -26.4929 86.24C-27.3596 86.24 -28.1396 86.0867 -28.8329 85.78C-29.5262 85.4733 -30.0729 85.0467 -30.4729 84.5C-30.8729 83.9533 -31.0729 83.3267 -31.0729 82.62C-31.0729 81.5667 -30.7529 80.6933 -30.1129 80C-29.4596 79.2933 -28.4929 78.7333 -27.2129 78.32ZM-24.8329 73.24C-25.2462 73.24 -25.6462 73.32 -26.0329 73.48C-26.4062 73.64 -26.7129 73.88 -26.9529 74.2C-27.1929 74.5067 -27.3129 74.8933 -27.3129 75.36C-27.3129 75.8667 -27.1129 76.3267 -26.7129 76.74C-26.2996 77.14 -25.7929 77.4867 -25.1929 77.78C-24.4596 77.5667 -23.8329 77.24 -23.3129 76.8C-22.7929 76.3467 -22.5329 75.8267 -22.5329 75.24C-22.5329 74.6933 -22.7462 74.2267 -23.1729 73.84C-23.5862 73.44 -24.1396 73.24 -24.8329 73.24ZM-26.2929 84.64C-25.7329 84.64 -25.2062 84.54 -24.7129 84.34C-24.2196 84.1267 -23.8262 83.8267 -23.5329 83.44C-23.2262 83.0533 -23.0729 82.5933 -23.0729 82.06C-23.0729 81.4733 -23.3062 80.9333 -23.7729 80.44C-24.2396 79.9467 -24.9062 79.54 -25.7729 79.22C-26.3462 79.34 -26.8929 79.54 -27.4129 79.82C-27.9329 80.0867 -28.3596 80.4333 -28.6929 80.86C-29.0129 81.2733 -29.1729 81.7667 -29.1729 82.34C-29.1729 82.9933 -28.8996 83.54 -28.3529 83.98C-27.8062 84.42 -27.1196 84.64 -26.2929 84.64ZM-17.5207 86.24C-17.894 86.24 -18.194 86.1267 -18.4207 85.9C-18.6474 85.66 -18.7607 85.3933 -18.7607 85.1C-18.7607 84.6067 -18.6074 84.2267 -18.3007 83.96C-17.994 83.6933 -17.654 83.56 -17.2807 83.56C-16.894 83.56 -16.594 83.6733 -16.3807 83.9C-16.154 84.1267 -16.0407 84.3933 -16.0407 84.7C-16.0407 85.1933 -16.194 85.5733 -16.5007 85.84C-16.794 86.1067 -17.134 86.24 -17.5207 86.24ZM-10.6846 79.44L-10.4446 77.98H-9.80461C-8.49794 77.98 -7.45127 77.7467 -6.66461 77.28C-5.87794 76.8 -5.48461 76.1533 -5.48461 75.34C-5.48461 74.7267 -5.69794 74.24 -6.12461 73.88C-6.53794 73.5067 -7.07127 73.32 -7.72461 73.32C-8.33794 73.32 -8.86461 73.42 -9.30461 73.62C-9.74461 73.8067 -10.1379 74.0267 -10.4846 74.28L-11.1846 72.92C-10.7179 72.5867 -10.1846 72.3133 -9.58461 72.1C-8.97127 71.8733 -8.27794 71.76 -7.50461 71.76C-6.69127 71.76 -5.99794 71.9133 -5.42461 72.22C-4.83794 72.5267 -4.39127 72.9333 -4.08461 73.44C-3.77794 73.9333 -3.62461 74.4667 -3.62461 75.04C-3.62461 75.9733 -3.89794 76.7333 -4.44461 77.32C-4.99127 77.8933 -5.79127 78.34 -6.84461 78.66C-6.00461 78.9533 -5.35794 79.3867 -4.90461 79.96C-4.45127 80.5333 -4.22461 81.2133 -4.22461 82C-4.22461 82.8533 -4.44461 83.6 -4.88461 84.24C-5.32461 84.88 -5.93127 85.3733 -6.70461 85.72C-7.46461 86.0667 -8.33794 86.24 -9.32461 86.24C-10.0846 86.24 -10.8046 86.14 -11.4846 85.94C-12.1513 85.7267 -12.7179 85.44 -13.1846 85.08L-12.1246 83.66C-11.7913 83.94 -11.3913 84.1733 -10.9246 84.36C-10.4579 84.5467 -9.92461 84.64 -9.32461 84.64C-8.41794 84.64 -7.66461 84.42 -7.06461 83.98C-6.46461 83.54 -6.16461 82.9067 -6.16461 82.08C-6.16461 81.3467 -6.45127 80.7267 -7.02461 80.22C-7.59794 79.7 -8.47794 79.44 -9.66461 79.44H-10.6846ZM7.38368 72H9.28368L7.12368 84.3H13.5437L13.2437 86H4.92368L7.38368 72ZM17.539 72.2C18.0457 72.0933 18.5857 72.0067 19.159 71.94C19.7457 71.8733 20.3923 71.84 21.099 71.84C22.179 71.84 23.079 72.0333 23.799 72.42C24.519 72.7933 25.0523 73.2933 25.399 73.92C25.759 74.5333 25.939 75.1933 25.939 75.9C25.939 76.9933 25.6723 77.9133 25.139 78.66C24.6057 79.3933 23.8723 79.9533 22.939 80.34C22.0057 80.7133 20.9457 80.9 19.759 80.9C19.439 80.9 19.119 80.8867 18.799 80.86C18.4923 80.82 18.2057 80.7667 17.939 80.7L17.019 86H15.119L17.539 72.2ZM20.899 73.42C20.539 73.42 20.219 73.4333 19.939 73.46C19.6723 73.4867 19.4257 73.52 19.199 73.56L18.219 79.1C18.4857 79.18 18.7723 79.24 19.079 79.28C19.399 79.3067 19.7123 79.32 20.019 79.32C21.4457 79.32 22.479 79.02 23.119 78.42C23.759 77.82 24.079 77.0533 24.079 76.12C24.079 75.3333 23.799 74.6867 23.239 74.18C22.6923 73.6733 21.9123 73.42 20.899 73.42ZM24.3049 85.26L31.9849 72H34.1249L37.1849 85.78L35.3649 86.2L34.5249 82.2H28.0449L25.8249 86.16L24.3049 85.26ZM28.9449 80.6H34.1849L32.7649 73.86L28.9449 80.6Z" fill="#2B2F34"/>
<path id="Average Salary" d="M-24.4289 106.06C-24.8129 106.06 -25.1929 105.956 -25.5689 105.748C-25.9449 105.532 -26.2449 105.116 -26.4689 104.5L-26.7689 103.72H-30.1289L-31.0889 106H-31.6289L-28.2689 98.08H-27.9089L-25.2689 104.5C-25.0689 104.964 -24.8809 105.284 -24.7049 105.46C-24.5289 105.628 -24.2769 105.728 -23.9489 105.76V106C-24.0929 106.04 -24.2529 106.06 -24.4289 106.06ZM-27.0089 103.24L-28.4489 99.76L-29.9489 103.24H-27.0089ZM-23.6474 101.74C-23.8394 101.292 -24.0234 100.98 -24.1994 100.804C-24.3754 100.62 -24.6074 100.52 -24.8954 100.504V100.264C-24.8554 100.264 -24.7994 100.26 -24.7274 100.252C-24.6474 100.244 -24.5674 100.24 -24.4874 100.24C-24.0634 100.24 -23.6794 100.348 -23.3354 100.564C-22.9914 100.772 -22.6954 101.164 -22.4474 101.74L-21.3674 104.32L-19.6874 100.36H-19.0874L-21.5474 106.12H-21.7874L-23.6474 101.74ZM-15.7843 106.12C-16.3283 106.12 -16.7883 105.992 -17.1643 105.736C-17.5403 105.472 -17.8243 105.12 -18.0163 104.68C-18.2083 104.232 -18.3043 103.732 -18.3043 103.18C-18.3043 102.636 -18.2083 102.14 -18.0163 101.692C-17.8243 101.244 -17.5483 100.892 -17.1883 100.636C-16.8203 100.372 -16.3923 100.24 -15.9043 100.24C-15.0963 100.24 -14.4963 100.468 -14.1043 100.924C-13.7043 101.372 -13.5043 102.024 -13.5043 102.88L-13.5283 103.36H-17.1643C-17.1643 104.032 -17.0203 104.58 -16.7323 105.004C-16.4443 105.428 -16.0483 105.64 -15.5443 105.64C-15.1683 105.64 -14.8523 105.56 -14.5963 105.4C-14.3323 105.24 -14.0883 105 -13.8643 104.68L-13.6243 104.86C-13.8883 105.3 -14.1963 105.62 -14.5483 105.82C-14.9003 106.02 -15.3123 106.12 -15.7843 106.12ZM-14.6443 102.88C-14.6443 102.176 -14.7483 101.64 -14.9563 101.272C-15.1643 100.904 -15.4803 100.72 -15.9043 100.72C-16.1443 100.72 -16.3603 100.816 -16.5523 101.008C-16.7443 101.192 -16.8963 101.448 -17.0083 101.776C-17.1123 102.104 -17.1643 102.472 -17.1643 102.88H-14.6443ZM-11.9049 101.8C-11.9049 101.392 -11.9609 101.092 -12.0729 100.9C-12.1849 100.7 -12.4089 100.6 -12.7449 100.6H-12.8649V100.36H-11.9049C-11.6009 100.36 -11.3729 100.404 -11.2209 100.492C-11.0609 100.572 -10.9489 100.708 -10.8849 100.9H-10.8249C-10.6809 100.716 -10.4889 100.56 -10.2489 100.432C-10.0009 100.304 -9.71292 100.24 -9.38492 100.24C-9.06492 100.24 -8.82492 100.3 -8.66492 100.42C-8.52892 100.524 -8.38892 100.704 -8.24492 100.96L-8.72492 101.32C-8.81292 101.2 -8.94092 101.112 -9.10892 101.056C-9.27692 100.992 -9.46892 100.96 -9.68492 100.96C-9.92492 100.96 -10.1449 101.016 -10.3449 101.128C-10.5449 101.232 -10.7049 101.376 -10.8249 101.56V106H-11.9049V101.8ZM-5.76739 106.12C-6.02339 106.12 -6.28339 106.068 -6.54739 105.964C-6.81139 105.852 -7.03939 105.672 -7.23139 105.424C-7.41539 105.176 -7.50739 104.848 -7.50739 104.44C-7.50739 103.832 -7.22739 103.4 -6.66739 103.144C-6.09939 102.888 -5.35939 102.76 -4.44739 102.76H-4.08739C-4.08739 101.976 -4.19539 101.44 -4.41139 101.152C-4.62739 100.864 -4.93939 100.72 -5.34739 100.72C-5.70739 100.72 -5.99539 100.796 -6.21139 100.948C-6.42739 101.1 -6.57939 101.364 -6.66739 101.74H-7.20739C-7.20739 101.468 -7.19139 101.256 -7.15939 101.104C-7.12739 100.944 -7.04339 100.796 -6.90739 100.66C-6.76339 100.516 -6.52739 100.412 -6.19939 100.348C-5.86339 100.276 -5.49939 100.24 -5.10739 100.24C-4.45939 100.24 -3.94739 100.416 -3.57139 100.768C-3.19539 101.112 -3.00739 101.776 -3.00739 102.76V106H-3.60739L-4.02739 105.46H-4.08739C-4.23139 105.644 -4.44339 105.8 -4.72339 105.928C-5.00339 106.056 -5.35139 106.12 -5.76739 106.12ZM-5.22739 105.58C-4.96339 105.58 -4.74339 105.516 -4.56739 105.388C-4.39139 105.26 -4.23139 105.084 -4.08739 104.86V103.24H-4.44739C-5.03939 103.24 -5.50739 103.352 -5.85139 103.576C-6.19539 103.792 -6.36739 104.08 -6.36739 104.44C-6.36739 104.808 -6.25939 105.092 -6.04339 105.292C-5.81939 105.484 -5.54739 105.58 -5.22739 105.58ZM0.873957 108.4C0.0659571 108.4 -0.578043 108.252 -1.05804 107.956C-1.53004 107.66 -1.76604 107.188 -1.76604 106.54C-1.76604 106.172 -1.64204 105.852 -1.39404 105.58C-1.14604 105.308 -0.830043 105.108 -0.446043 104.98C-0.766043 104.804 -0.926043 104.564 -0.926043 104.26C-0.926043 104.1 -0.890043 103.976 -0.818043 103.888C-0.746043 103.8 -0.642043 103.704 -0.506043 103.6C-0.762043 103.472 -0.978043 103.272 -1.15404 103C-1.32204 102.728 -1.40604 102.408 -1.40604 102.04C-1.40604 100.84 -0.646043 100.24 0.873957 100.24H3.09396V100.54L2.31396 100.66V100.72C2.56196 100.848 2.76196 101.028 2.91396 101.26C3.07396 101.484 3.15396 101.744 3.15396 102.04C3.15396 103.24 2.39396 103.84 0.873957 103.84C0.0339571 103.84 -0.386043 103.98 -0.386043 104.26C-0.386043 104.54 0.0339571 104.68 0.873957 104.68C1.64996 104.68 2.28196 104.836 2.76996 105.148C3.26596 105.452 3.51396 105.916 3.51396 106.54C3.51396 107.188 3.27396 107.66 2.79396 107.956C2.32196 108.252 1.68196 108.4 0.873957 108.4ZM0.873957 103.42C1.23396 103.42 1.52196 103.312 1.73796 103.096C1.96196 102.872 2.07396 102.52 2.07396 102.04C2.07396 101.584 1.96196 101.24 1.73796 101.008C1.52196 100.776 1.23396 100.66 0.873957 100.66C0.513957 100.66 0.221957 100.772 -0.00204289 100.996C-0.218043 101.212 -0.326043 101.56 -0.326043 102.04C-0.326043 102.52 -0.218043 102.872 -0.00204289 103.096C0.221957 103.312 0.513957 103.42 0.873957 103.42ZM0.873957 107.92C1.35396 107.92 1.73396 107.804 2.01396 107.572C2.29396 107.348 2.43396 107.004 2.43396 106.54C2.43396 105.74 1.95396 105.28 0.993957 105.16L0.333957 105.1C0.00595713 105.228 -0.246043 105.408 -0.422043 105.64C-0.598043 105.872 -0.686043 106.172 -0.686043 106.54C-0.686043 107.004 -0.546043 107.348 -0.266043 107.572C0.0139571 107.804 0.393957 107.92 0.873957 107.92ZM7.00821 106.12C6.46421 106.12 6.00421 105.992 5.62821 105.736C5.25221 105.472 4.96821 105.12 4.77621 104.68C4.58421 104.232 4.48821 103.732 4.48821 103.18C4.48821 102.636 4.58421 102.14 4.77621 101.692C4.96821 101.244 5.24421 100.892 5.60421 100.636C5.97221 100.372 6.40021 100.24 6.88821 100.24C7.69621 100.24 8.29621 100.468 8.68821 100.924C9.08821 101.372 9.28821 102.024 9.28821 102.88L9.26421 103.36H5.62821C5.62821 104.032 5.77221 104.58 6.06021 105.004C6.34821 105.428 6.74421 105.64 7.24821 105.64C7.62421 105.64 7.94021 105.56 8.19621 105.4C8.46021 105.24 8.70421 105 8.92821 104.68L9.16821 104.86C8.90421 105.3 8.59621 105.62 8.24421 105.82C7.89221 106.02 7.48021 106.12 7.00821 106.12ZM8.14821 102.88C8.14821 102.176 8.04421 101.64 7.83621 101.272C7.62821 100.904 7.31221 100.72 6.88821 100.72C6.64821 100.72 6.43221 100.816 6.24021 101.008C6.04821 101.192 5.89621 101.448 5.78421 101.776C5.68021 102.104 5.62821 102.472 5.62821 102.88H8.14821ZM16.4316 106.204C15.9916 106.204 15.5596 106.144 15.1356 106.024C14.7116 105.904 14.3636 105.732 14.0916 105.508C13.8276 105.284 13.6956 105.028 13.6956 104.74V103.456H13.9116C14.0476 104.256 14.3116 104.836 14.7036 105.196C15.0956 105.548 15.6356 105.724 16.3236 105.724C16.7556 105.724 17.1236 105.616 17.4276 105.4C17.7396 105.184 17.8956 104.884 17.8956 104.5C17.8956 104.164 17.7916 103.872 17.5836 103.624C17.3756 103.376 17.0396 103.116 16.5756 102.844L15.0996 101.968C14.5876 101.664 14.2236 101.356 14.0076 101.044C13.7996 100.732 13.6956 100.352 13.6956 99.904C13.6956 99.288 13.9076 98.796 14.3316 98.428C14.7636 98.052 15.3276 97.864 16.0236 97.864C16.4316 97.864 16.8356 97.924 17.2356 98.044C17.6356 98.156 17.9636 98.324 18.2196 98.548C18.4836 98.764 18.6156 99.016 18.6156 99.304V100.588H18.3996C18.2636 99.788 18.0036 99.216 17.6196 98.872C17.2436 98.52 16.7116 98.344 16.0236 98.344C15.6556 98.344 15.3316 98.456 15.0516 98.68C14.7716 98.904 14.6316 99.196 14.6316 99.556C14.6316 99.884 14.7316 100.156 14.9316 100.372C15.1396 100.588 15.4836 100.84 15.9636 101.128L17.4396 102.004C17.9836 102.332 18.3676 102.636 18.5916 102.916C18.8156 103.196 18.9276 103.552 18.9276 103.984C18.9276 104.656 18.7036 105.196 18.2556 105.604C17.8076 106.004 17.1996 106.204 16.4316 106.204ZM21.774 106.12C21.518 106.12 21.258 106.068 20.994 105.964C20.73 105.852 20.502 105.672 20.31 105.424C20.126 105.176 20.034 104.848 20.034 104.44C20.034 103.832 20.314 103.4 20.874 103.144C21.442 102.888 22.182 102.76 23.094 102.76H23.454C23.454 101.976 23.346 101.44 23.13 101.152C22.914 100.864 22.602 100.72 22.194 100.72C21.834 100.72 21.546 100.796 21.33 100.948C21.114 101.1 20.962 101.364 20.874 101.74H20.334C20.334 101.468 20.35 101.256 20.382 101.104C20.414 100.944 20.498 100.796 20.634 100.66C20.778 100.516 21.014 100.412 21.342 100.348C21.678 100.276 22.042 100.24 22.434 100.24C23.082 100.24 23.594 100.416 23.97 100.768C24.346 101.112 24.534 101.776 24.534 102.76V106H23.934L23.514 105.46H23.454C23.31 105.644 23.098 105.8 22.818 105.928C22.538 106.056 22.19 106.12 21.774 106.12ZM22.314 105.58C22.578 105.58 22.798 105.516 22.974 105.388C23.15 105.26 23.31 105.084 23.454 104.86V103.24H23.094C22.502 103.24 22.034 103.352 21.69 103.576C21.346 103.792 21.174 104.08 21.174 104.44C21.174 104.808 21.282 105.092 21.498 105.292C21.722 105.484 21.994 105.58 22.314 105.58ZM26.3754 99.52C26.3754 99.112 26.3194 98.812 26.2074 98.62C26.0954 98.42 25.8714 98.32 25.5354 98.32H25.2954V98.08H26.3754C26.6714 98.08 26.8914 98.12 27.0354 98.2C27.1874 98.272 27.2954 98.408 27.3594 98.608C27.4234 98.808 27.4554 99.112 27.4554 99.52V106H26.3754V99.52ZM30.6976 106.12C30.4416 106.12 30.1816 106.068 29.9176 105.964C29.6536 105.852 29.4256 105.672 29.2336 105.424C29.0496 105.176 28.9576 104.848 28.9576 104.44C28.9576 103.832 29.2376 103.4 29.7976 103.144C30.3656 102.888 31.1056 102.76 32.0176 102.76H32.3776C32.3776 101.976 32.2696 101.44 32.0536 101.152C31.8376 100.864 31.5256 100.72 31.1176 100.72C30.7576 100.72 30.4696 100.796 30.2536 100.948C30.0376 101.1 29.8856 101.364 29.7976 101.74H29.2576C29.2576 101.468 29.2736 101.256 29.3056 101.104C29.3376 100.944 29.4216 100.796 29.5576 100.66C29.7016 100.516 29.9376 100.412 30.2656 100.348C30.6016 100.276 30.9656 100.24 31.3576 100.24C32.0056 100.24 32.5176 100.416 32.8936 100.768C33.2696 101.112 33.4576 101.776 33.4576 102.76V106H32.8576L32.4376 105.46H32.3776C32.2336 105.644 32.0216 105.8 31.7416 105.928C31.4616 106.056 31.1136 106.12 30.6976 106.12ZM31.2376 105.58C31.5016 105.58 31.7216 105.516 31.8976 105.388C32.0736 105.26 32.2336 105.084 32.3776 104.86V103.24H32.0176C31.4256 103.24 30.9576 103.352 30.6136 103.576C30.2696 103.792 30.0976 104.08 30.0976 104.44C30.0976 104.808 30.2056 105.092 30.4216 105.292C30.6456 105.484 30.9176 105.58 31.2376 105.58ZM35.347 101.8C35.347 101.392 35.291 101.092 35.179 100.9C35.067 100.7 34.843 100.6 34.507 100.6H34.387V100.36H35.347C35.651 100.36 35.879 100.404 36.031 100.492C36.191 100.572 36.303 100.708 36.367 100.9H36.427C36.571 100.716 36.763 100.56 37.003 100.432C37.251 100.304 37.539 100.24 37.867 100.24C38.187 100.24 38.427 100.3 38.587 100.42C38.723 100.524 38.863 100.704 39.007 100.96L38.527 101.32C38.439 101.2 38.311 101.112 38.143 101.056C37.975 100.992 37.783 100.96 37.567 100.96C37.327 100.96 37.107 101.016 36.907 101.128C36.707 101.232 36.547 101.376 36.427 101.56V106H35.347V101.8ZM40.5365 108.04C40.9285 108.04 41.2485 107.948 41.4965 107.764C41.7525 107.588 41.9725 107.26 42.1565 106.78L42.3965 106.12L40.4765 101.44C40.2525 100.864 39.8125 100.544 39.1565 100.48V100.24H40.1765C40.8725 100.24 41.3525 100.56 41.6165 101.2L42.9845 104.524L44.4965 100.36H45.0965L42.7565 106.78C42.5245 107.412 42.2685 107.84 41.9885 108.064C41.7085 108.288 41.3445 108.4 40.8965 108.4H40.5365V108.04Z" fill="#4F4F4F"/>
</g>
</g>
<rect x="-637.5" y="50.5" width="710" height="76" rx="7.5" stroke="#E2E2E2" shape-rendering="crispEdges"/>
</g>
</g>
<g id="CTA Form">
<g id="Shadow Gradient" filter="url(#filter1_f_0_1)">
<path id="Star 4" opacity="0.7" d="M197.329 -19.2979L316.475 76.9071L460.521 137.419L306.302 193.467L170.698 285.859L205.772 133.606L197.329 -19.2979Z" fill="#3797D2"/>
</g>
<g id="Frame" filter="url(#filter2_d_0_1)">
<rect x="169" y="-210" width="415" height="496" rx="18" fill="white" shape-rendering="crispEdges"/>
</g>
</g>
</g>
</g>
<defs>
<filter id="filter0_d_0_1" x="-678" y="12" width="791" height="157" filterUnits="userSpaceOnUse" color-interpolation-filters="sRGB">
<feFlood flood-opacity="0" result="BackgroundImageFix"/>
<feColorMatrix in="SourceAlpha" type="matrix" values="0 0 0 0 0 0 0 0 0 0 0 0 0 0 0 0 0 0 127 0" result="hardAlpha"/>
<feOffset dy="2"/>
<feGaussianBlur stdDeviation="20"/>
<feComposite in2="hardAlpha" operator="out"/>
<feColorMatrix type="matrix" values="0 0 0 0 0 0 0 0 0 0 0 0 0 0 0 0 0 0 0.08 0"/>
<feBlend mode="normal" in2="BackgroundImageFix" result="effect1_dropShadow_0_1"/>
<feBlend mode="normal" in="SourceGraphic" in2="effect1_dropShadow_0_1" result="shape"/>
</filter>
<filter id="filter1_f_0_1" x="6.79646" y="-398" width="777.544" height="843.859" filterUnits="userSpaceOnUse" color-interpolation-filters="sRGB">
<feFlood flood-opacity="0" result="BackgroundImageFix"/>
<feBlend mode="normal" in="SourceGraphic" in2="BackgroundImageFix" result="shape"/>
<feGaussianBlur stdDeviation="80" result="effect1_foregroundBlur_0_1"/>
</filter>
<filter id="filter2_d_0_1" x="115" y="-239" width="523" height="604" filterUnits="userSpaceOnUse" color-interpolation-filters="sRGB">
<feFlood flood-opacity="0" result="BackgroundImageFix"/>
<feColorMatrix in="SourceAlpha" type="matrix" values="0 0 0 0 0 0 0 0 0 0 0 0 0 0 0 0 0 0 127 0" result="hardAlpha"/>
<feOffset dy="25"/>
<feGaussianBlur stdDeviation="27"/>
<feComposite in2="hardAlpha" operator="out"/>
<feColorMatrix type="matrix" values="0 0 0 0 0 0 0 0 0 0 0 0 0 0 0 0 0 0 0.12 0"/>
<feBlend mode="normal" in2="BackgroundImageFix" result="effect1_dropShadow_0_1"/>
<feBlend mode="normal" in="SourceGraphic" in2="effect1_dropShadow_0_1" result="shape"/>
</filter>
<linearGradient id="paint0_linear_0_1" x1="128.907" y1="64.5508" x2="7.08891" y2="77.042" gradientUnits="userSpaceOnUse">
<stop stop-color="#992FED"/>
<stop offset="1" stop-color="#2F80ED"/>
</linearGradient>
<linearGradient id="paint1_linear_0_1" x1="111.001" y1="10.5861" x2="93.8787" y2="13.4508" gradientUnits="userSpaceOnUse">
<stop stop-color="#992FED"/>
<stop offset="1" stop-color="#2F80ED"/>
</linearGradient>
<linearGradient id="paint2_linear_0_1" x1="99.8755" y1="26.336" x2="115.071" y2="17.9408" gradientUnits="userSpaceOnUse">
<stop stop-color="#992FED"/>
<stop offset="1" stop-color="#2F80ED"/>
</linearGradient>
<clipPath id="clip0_0_1">
<rect width="1440" height="783" fill="white" transform="translate(-748 -407)"/>
</clipPath>
</defs>
</svg>
