<svg width="21" height="21" viewBox="0 0 21 21" fill="none" xmlns="http://www.w3.org/2000/svg">
<rect width="21" height="21" fill="#1E1E1E"/>
<g id="Landing">
<g id="1. Hero Section" clip-path="url(#clip0_0_1)">
<rect width="1440" height="783" transform="translate(-502 -487)" fill="white"/>
<g id="Hero Left">
<g id="Features" filter="url(#filter0_d_0_1)">
<rect x="-392" y="-30" width="711" height="77" rx="8" fill="white" shape-rendering="crispEdges"/>
<g id="Frame 998">
<g id="Group 903">
<circle id="Ellipse 32" cx="11" cy="10" r="18" fill="#DFFFE4"/>
<g id="Frame" clip-path="url(#clip1_0_1)">
<path id="Vector" d="M10.5 0.875L17.6899 2.47275C18.0897 2.562 18.375 2.91637 18.375 3.32675V12.0654C18.375 13.8206 17.4974 15.4604 16.037 16.4334L10.5 20.125L4.963 16.4334C3.50175 15.4595 2.625 13.8206 2.625 12.0662V3.32675C2.625 2.91637 2.91025 2.562 3.31012 2.47275L10.5 0.875ZM14.3955 7.19425L10.0642 11.5246L7.58975 9.05013L6.3525 10.2874L10.0651 14L15.6336 8.4315L14.3955 7.19425Z" fill="#3ECD44"/>
</g>
</g>
</g>
<rect x="-391.5" y="-29.5" width="710" height="76" rx="7.5" stroke="#E2E2E2" shape-rendering="crispEdges"/>
</g>
</g>
</g>
</g>
<defs>
<filter id="filter0_d_0_1" x="-432" y="-68" width="791" height="157" filterUnits="userSpaceOnUse" color-interpolation-filters="sRGB">
<feFlood flood-opacity="0" result="BackgroundImageFix"/>
<feColorMatrix in="SourceAlpha" type="matrix" values="0 0 0 0 0 0 0 0 0 0 0 0 0 0 0 0 0 0 127 0" result="hardAlpha"/>
<feOffset dy="2"/>
<feGaussianBlur stdDeviation="20"/>
<feComposite in2="hardAlpha" operator="out"/>
<feColorMatrix type="matrix" values="0 0 0 0 0 0 0 0 0 0 0 0 0 0 0 0 0 0 0.08 0"/>
<feBlend mode="normal" in2="BackgroundImageFix" result="effect1_dropShadow_0_1"/>
<feBlend mode="normal" in="SourceGraphic" in2="effect1_dropShadow_0_1" result="shape"/>
</filter>
<clipPath id="clip0_0_1">
<rect width="1440" height="783" fill="white" transform="translate(-502 -487)"/>
</clipPath>
<clipPath id="clip1_0_1">
<rect width="21" height="21" fill="white"/>
</clipPath>
</defs>
</svg>
